HIERARCHY
ROOT Hips
{
    OFFSET 0.000000 0.000000 0.000000
    CHANNELS 6 Xposition Yposition Zposition Zrotation Xrotation Yrotation
        JOINT Chest
        {
            OFFSET -0.000000 31.966684 -0.000000
            CHANNELS 3 Zrotation Xrotation Yrotation
            JOINT Neck
            {
                OFFSET -0.000000 23.973995 0.000000
                CHANNELS 3 Zrotation Xrotation Yrotation
                JOINT Head
                {
                    OFFSET -0.000000 10.633333 0.000000
                    CHANNELS 3 Zrotation Xrotation Yrotation
                    End Site
                    {
                        OFFSET -0.000000 16.433334 0.000000
                    }
                }
            }
            JOINT LeftCollar
            {
                OFFSET -0.000000 23.973995 0.000000
                CHANNELS 3 Zrotation Xrotation Yrotation
                JOINT LeftShoulder
                {
                    OFFSET 19.333332 -0.000000 0.000000
                    CHANNELS 3 Zrotation Xrotation Yrotation
                    JOINT LeftElbow
                    {
                        OFFSET 20.067463 0.000000 0.000000
                        CHANNELS 3 Zrotation Xrotation Yrotation
                        JOINT LeftWrist
                        {
                            OFFSET 23.490957 0.000000 0.000000
                            CHANNELS 3 Zrotation Xrotation Yrotation
                            End Site
                            {
                                OFFSET 0.000000 -14.500000 0.000000
                            }
                        }
                    }
                }
            }
            JOINT RightCollar
            {
                OFFSET -0.000000 23.973995 0.000000
                CHANNELS 3 Zrotation Xrotation Yrotation
                JOINT RightShoulder
                {
                    OFFSET -19.333332 0.000000 0.000000
                    CHANNELS 3 Zrotation Xrotation Yrotation
                    JOINT RightElbow
                    {
                        OFFSET -20.067463 0.000000 0.000000
                        CHANNELS 3 Zrotation Xrotation Yrotation
                        JOINT RightWrist
                        {
                            OFFSET -23.490957 0.000000 0.000000
                            CHANNELS 3 Zrotation Xrotation Yrotation
                            End Site
                            {
                                OFFSET -0.000000 -14.500000 0.000000
                            }
                        }
                    }
                }
            }
        }
    JOINT LeftHip
    {
        OFFSET 11.599999 0.000000 0.000000
        CHANNELS 3 Zrotation Xrotation Yrotation
        JOINT LeftKnee
        {
            OFFSET -0.000000 -35.131119 0.000000
            CHANNELS 3 Zrotation Xrotation Yrotation
            JOINT LeftAnkle
            {
                OFFSET -0.000000 -37.839104 0.000000
                CHANNELS 3 Zrotation Xrotation Yrotation
                End Site
                {
                    OFFSET -0.000000 -4.833333 16.433334
                }
            }
        }
    }
    JOINT RightHip
    {
        OFFSET -11.599999 0.000000 0.000000
        CHANNELS 3 Zrotation Xrotation Yrotation
        JOINT RightKnee
        {
            OFFSET -0.000000 -35.131119 0.000000
            CHANNELS 3 Zrotation Xrotation Yrotation
            JOINT RightAnkle
            {
                OFFSET -0.000000 -37.839104 0.000000
                CHANNELS 3 Zrotation Xrotation Yrotation
                End Site
                {
                    OFFSET -0.000000 -4.833333 16.433334
                }
            }
        }
    }
}
MOTION
Frames:    12
Frame Time:    0.010000
-95.298721    84.990677    -60.192413    3.515676    1.671594    38.990326    -4.637125    5.281125    0.546707    5.969412    -4.500278    4.780889    -4.857419    0.473672    4.567200    -15.995880    0.353783    -2.539672    -43.964825    44.202431    -28.578476    -15.759569    5.666837    -38.554867    110.629822    17.130981    92.531822    10.751474    0.582798    6.166611    55.552147    42.874271    25.151653    11.768099    2.652031    25.489756    -124.624939    -1.921499    39.603889    8.273573    -3.735315    -1.233340    -16.106750    31.754562    10.844462    -8.501414    -12.397449    34.984512    -6.445898    -0.638456    -0.632508    6.788914    14.952036    -4.750780    -11.942635    -9.666108    -20.015945    
-95.221031    84.930588    -60.265305    3.434768    1.449118    39.014896    -4.317863    5.357841    0.120722    6.101972    -4.303814    4.901157    -5.034735    0.411841    4.690697    -16.097820    0.392742    -2.694397    -43.922665    44.026245    -28.643021    -16.240187    5.860414    -38.566883    112.014656    17.670275    92.710869    10.852077    0.565329    5.935623    54.680016    44.237968    25.962950    11.525761    2.590394    25.449411    -126.779724    -2.016963    39.724979    8.029829    -2.846690    -0.606028    -15.113454    31.001513    10.183427    -9.038610    -13.141604    34.919785    -6.298114    -0.614305    -0.430017    6.848928    15.070127    -5.398774    -11.688422    -9.865667    -19.743015    
-95.135147    84.868988    -60.347694    3.355500    1.210861    39.046188    -3.990592    5.442883    -0.302791    6.268780    -4.100110    5.016472    -5.288471    0.361504    4.809600    -16.191156    0.397319    -2.921520    -43.985973    43.863792    -28.602564    -16.707016    6.041727    -38.647118    113.494247    18.311171    92.842255    10.951781    0.555566    5.657251    53.716736    45.606911    26.892107    11.234672    2.510107    25.400669    -128.655350    -1.911318    39.874191    7.779879    -1.920162    0.097104    -14.049983    30.078085    9.437356    -9.396585    -13.905275    34.820843    -6.156149    -0.601908    -0.246684    6.939546    15.232685    -6.026815    -11.272655    -10.177861    -19.544905    
-95.044998    84.808922    -60.442249    3.275070    0.972339    39.072361    -3.648280    5.517782    -0.704938    6.377753    -3.847240    5.165774    -5.542371    0.296629    4.967646    -16.293098    0.437008    -3.117352    -44.112396    43.659985    -28.529768    -17.295647    6.284876    -38.692253    115.169334    19.002802    92.934242    11.036120    0.563780    5.469014    52.752045    46.843777    27.828003    10.962773    2.439246    25.329409    -130.135010    -1.592914    39.969585    7.530241    -0.977753    0.857191    -12.981983    29.002628    8.640640    -9.579461    -14.650707    34.712132    -6.027358    -0.643030    -0.101145    7.046128    15.476526    -6.593155    -10.708667    -10.589372    -19.414835    
-94.953873    84.752945    -60.550194    3.194823    0.746303    39.081917    -3.308835    5.580369    -1.065463    6.493530    -3.601604    5.310670    -5.837627    0.253100    5.121019    -16.387846    0.470362    -3.326891    -44.276516    43.499664    -28.445948    -17.836288    6.494932    -38.802864    116.928024    19.784393    92.956169    11.117533    0.551588    5.306960    51.870255    47.863701    28.692595    10.692119    2.364964    25.291288    -131.090927    -1.039999    39.935192    7.285258    -0.037274    1.649585    -11.967529    27.805248    7.827068    -9.600816    -15.338605    34.608326    -5.919186    -0.774746    -0.007517    7.146878    15.840411    -7.072190    -10.025207    -11.072801    -19.322348    
-94.864700    84.702873    -60.671585    3.120060    0.540264    39.066563    -2.981702    5.629403    -1.366393    6.597525    -3.381411    5.451787    -6.136378    0.252752    5.272002    -16.474897    0.495389    -3.521393    -44.486763    43.369278    -28.346081    -18.375154    6.709294    -38.934517    118.807709    20.610420    92.900650    11.194238    0.518916    5.210647    51.160805    48.592693    29.393734    10.504880    2.330234    25.249353    -131.470062    -0.257551    39.671970    7.047886    0.887208    2.442327    -11.051163    26.528139    7.028236    -9.480387    -15.932271    34.514526    -5.838050    -1.027273    0.027256    7.219204    16.365698    -7.459311    -9.270323    -11.590812    -19.222523    
-94.780289    84.659599    -60.805870    3.058887    0.356272    39.023876    -2.681223    5.672925    -1.595766    6.703641    -3.224417    5.573425    -6.425433    0.324948    5.404112    -16.542665    0.519490    -3.706708    -44.743946    43.254120    -28.234167    -18.922121    6.934603    -39.066002    120.798241    21.433805    92.747437    11.263700    0.497134    5.170189    50.661198    48.977600    29.916405    10.458211    2.346150    25.178730    -131.242462    0.730253    39.104774    6.820184    1.783300    3.194235    -10.261629    25.223160    6.270784    -9.240758    -16.403976    34.431828    -5.790182    -1.422879    0.006056    7.248584    17.093710    -7.771426    -8.508908    -12.103230    -19.070595    
-94.702019    84.623322    -60.951187    3.023705    0.186329    38.959435    -2.417846    5.728102    -1.749422    6.805706    -3.149680    5.670765    -6.676224    0.484799    5.513029    -16.582104    0.561752    -3.867465    -45.033257    43.140003    -28.134420    -19.481939    7.159822    -39.176445    122.870735    22.197397    92.493828    11.315728    0.541580    5.193993    50.370979    48.992622    30.294609    10.592374    2.365293    25.053881    -130.407394    1.851279    38.196411    6.604834    2.646698    3.859889    -9.609632    23.946878    5.568116    -8.911276    -16.744333    34.361858    -5.782053    -1.965097    -0.058507    7.235978    18.056990    -8.042120    -7.807753    -12.576608    -18.834980    
-94.628128    84.593704    -61.103569    3.034042    0.008349    38.887577    -2.199998    5.827917    -1.831872    6.903913    -3.165869    5.738000    -6.872414    0.732080    5.591790    -16.588060    0.596506    -3.993981    -45.341732    43.069633    -28.050398    -19.950293    7.341555    -39.323345    124.899399    22.905678    92.153259    11.356205    0.517195    5.276711    50.378983    48.790768    30.417744    10.535744    2.376666    25.055410    -128.730438    3.216010    36.886730    6.405079    3.489224    4.394874    -9.089792    22.752913    4.922526    -8.529436    -16.964190    34.306648    -5.822167    -2.627401    -0.146513    7.201063    19.270483    -8.310817    -7.221388    -12.989610    -18.506634    
-94.554901    84.569778    -61.257088    3.112960    -0.208945    38.827347    -2.032878    6.014351    -1.851648    6.997043    -3.258722    5.771533    -7.008226    1.038416    5.636038    -16.562334    0.560341    -4.080554    -45.683090    43.106556    -27.935345    -20.230412    7.439546    -39.589214    126.762199    23.597048    91.766602    11.367506    0.538120    5.410986    50.628281    48.337147    30.404589    10.652624    2.377629    24.919481    -126.530449    4.521813    35.188049    6.226421    4.334359    4.766531    -8.687250    21.687592    4.327926    -8.136889    -17.090773    34.267258    -5.918957    -3.360122    -0.234997    7.176134    20.731266    -8.609538    -6.783362    -13.334430    -18.103016    
-94.481377    84.548988    -61.405258    3.274430    -0.486776    38.790806    -1.918400    6.313810    -1.810286    7.076087    -3.386433    5.772101    -7.084698    1.344632    5.646114    -16.501308    0.575799    -4.122604    -46.017380    43.128979    -27.836422    -20.530762    7.577734    -39.825756    128.449005    24.254650    91.448692    11.346904    0.570558    5.597296    51.054989    47.772953    30.304602    10.632659    2.337559    24.783560    -123.648987    5.751589    33.211334    6.078333    5.194213    4.971825    -8.386653    20.789957    3.771675    -7.771117    -17.159380    34.241173    -6.076655    -4.124279    -0.299935    7.194451    22.428999    -8.957459    -6.485313    -13.622476    -17.656061    
-94.414116    84.526230    -61.543400    3.510442    -0.815319    38.772720    -1.858756    6.713446    -1.693130    7.130063    -3.504804    5.742679    -7.106855    1.592339    5.622568    -16.418749    0.589684    -4.119637    -46.321178    43.190784    -27.736193    -20.466385    7.568878    -40.228466    129.423355    25.054848    91.245117    11.294847    0.585226    5.839848    51.615551    47.209618    30.136692    10.426937    2.286522    24.637426    -120.232521    6.748504    31.091049    5.973187    6.043733    5.043975    -8.181819    20.091858    3.241802    -7.460695    -17.206741    34.222595    -6.292177    -4.928920    -0.316053    7.281278    24.359102    -9.361743    -6.268221    -13.885657    -17.194023    
